<svg width="27" height="27" viewBox="0 0 27 27" fill="none" xmlns="http://www.w3.org/2000/svg">
<path d="M4.70164 0.578369L0.296753 0.601077L0.309373 3.18447L2.98358 3.17185L7.23962 13.3818L5.69311 15.8567C5.17643 16.6834 5.14971 17.7276 5.62247 18.5789C6.09523 19.4301 6.99225 19.9589 7.96618 19.9589H23.5422V17.3755H7.96618L7.88293 17.2241L9.40168 14.7921H19.049C19.9881 14.7921 20.8523 14.2815 21.307 13.4625L25.9616 5.0867C26.1851 4.68627 26.179 4.19783 25.9465 3.80257C25.714 3.4086 25.2887 3.16681 24.8314 3.16681H5.78141L4.70164 0.578369ZM6.85615 5.7502H22.6365L19.0491 12.2087H9.54803L6.85615 5.7502ZM8.04189 21.2506C6.61512 21.2506 5.4585 22.4072 5.4585 23.8339C5.4585 25.2607 6.61512 26.4173 8.04189 26.4173C9.46866 26.4173 10.6253 25.2607 10.6253 23.8339C10.6253 22.4072 9.46866 21.2506 8.04189 21.2506ZM20.9588 21.2506C19.5321 21.2506 18.3755 22.4072 18.3755 23.8339C18.3755 25.2607 19.5321 26.4173 20.9588 26.4173C22.3856 26.4173 23.5422 25.2607 23.5422 23.8339C23.5422 22.4072 22.3856 21.2506 20.9588 21.2506Z" fill="#363636"/>
</svg>
