<svg width="24" height="25" viewBox="0 0 24 25" fill="none" xmlns="http://www.w3.org/2000/svg">
<path d="M9.00019 2.5C5.14595 2.5 2.00003 5.64592 2.00003 9.50016C2.00003 13.3544 5.14595 16.5003 9.00019 16.5003C10.7482 16.5003 12.3453 15.8483 13.5745 14.7815L14.0003 15.2073V16.5003L20.0004 22.5005L22.0005 20.5004L16.0003 14.5003H14.7073L14.2816 14.0745C15.3484 12.8452 16.0003 11.2482 16.0003 9.50016C16.0003 5.64592 12.8544 2.5 9.00019 2.5ZM9.00019 4.50005C11.7735 4.50005 14.0003 6.72683 14.0003 9.50016C14.0003 12.2735 11.7735 14.5003 9.00019 14.5003C6.22686 14.5003 4.00008 12.2735 4.00008 9.50016C4.00008 6.72683 6.22686 4.50005 9.00019 4.50005Z" fill="#333333"/>
</svg>
