<svg width="27" height="27" viewBox="0 0 27 27" fill="none" xmlns="http://www.w3.org/2000/svg">
<path d="M13.5003 0.583374C6.3663 0.583374 0.583374 6.3663 0.583374 13.5003C0.583374 20.6344 6.3663 26.4173 13.5003 26.4173C20.6344 26.4173 26.4173 20.6344 26.4173 13.5003C26.4173 6.3663 20.6344 0.583374 13.5003 0.583374ZM13.5003 3.16677C19.207 3.16677 23.8339 7.79362 23.8339 13.5003C23.8339 15.5635 23.2209 17.4802 22.1789 19.0935L21.1849 18.324C19.1802 16.7779 15.4857 16.0837 13.5003 16.0837C11.515 16.0837 7.81917 16.7779 5.81575 18.324L4.82175 19.096C3.77908 17.4824 3.16677 15.5643 3.16677 13.5004C3.16677 7.79365 7.79362 3.16677 13.5003 3.16677ZM13.5003 5.42723C11.1856 5.42723 9.30232 7.31053 9.30232 9.62525C9.30232 11.94 11.1856 13.8233 13.5003 13.8233C15.8151 13.8233 17.6983 11.94 17.6983 9.62525C17.6983 7.31053 15.8151 5.42723 13.5003 5.42723ZM13.5003 8.01062C14.3903 8.01062 15.115 8.73527 15.115 9.62525C15.115 10.5152 14.3903 11.2399 13.5003 11.2399C12.6104 11.2399 11.8857 10.5152 11.8857 9.62525C11.8857 8.73527 12.6104 8.01062 13.5003 8.01062ZM13.5003 18.6671C17.5055 18.6671 19.6593 20.1764 20.6677 20.9326C18.8092 22.7254 16.2863 23.8339 13.5003 23.8339C10.7143 23.8339 8.19149 22.7254 6.33293 20.9326C7.3414 20.1764 9.49515 18.6671 13.5003 18.6671ZM21.137 20.4432C20.9953 20.5989 20.8539 20.7556 20.703 20.9024C20.8535 20.7565 20.994 20.5982 21.137 20.4432Z" fill="#363636"/>
</svg>
