<svg width="57" height="31" viewBox="0 0 57 31" fill="none" xmlns="http://www.w3.org/2000/svg">
<rect x="0.156494" y="14" width="19" height="3" rx="1" fill="#F71647"/>
<rect x="11.1565" y="6" width="19" height="3" rx="1" transform="rotate(90 11.1565 6)" fill="#F71647"/>
<path d="M30.8581 2.57837L26.4532 2.60108L26.4658 5.18447L29.1401 5.17185L33.3961 15.3818L31.8496 17.8567C31.3329 18.6834 31.3062 19.7276 31.7789 20.5789C32.2517 21.4301 33.1487 21.9589 34.1227 21.9589H49.6987V19.3755H34.1227L34.0394 19.2241L35.5582 16.7921H45.2055C46.1446 16.7921 47.0088 16.2815 47.4635 15.4625L52.1181 7.0867C52.3416 6.68627 52.3355 6.19783 52.103 5.80257C51.8705 5.4086 51.4451 5.16681 50.9879 5.16681H31.9379L30.8581 2.57837ZM33.0126 7.7502H48.793L45.2055 14.2087H35.7045L33.0126 7.7502ZM34.1984 23.2506C32.7716 23.2506 31.615 24.4072 31.615 25.8339C31.615 27.2607 32.7716 28.4173 34.1984 28.4173C35.6251 28.4173 36.7818 27.2607 36.7818 25.8339C36.7818 24.4072 35.6251 23.2506 34.1984 23.2506ZM47.1153 23.2506C45.6886 23.2506 44.5319 24.4072 44.5319 25.8339C44.5319 27.2607 45.6886 28.4173 47.1153 28.4173C48.5421 28.4173 49.6987 27.2607 49.6987 25.8339C49.6987 24.4072 48.5421 23.2506 47.1153 23.2506Z" fill="#F71647"/>
</svg>
