<svg width="21" height="26" viewBox="0 0 21 26" fill="none" xmlns="http://www.w3.org/2000/svg">
<path d="M7.75017 0L6.45848 1.2917H0V3.87509H1.2917V23.2505C1.2917 23.9251 1.53884 24.6128 2.02584 25.0998C2.51285 25.5868 3.20054 25.8339 3.87509 25.8339H16.792C17.4666 25.8339 18.1543 25.5868 18.6413 25.0998C19.1283 24.6128 19.3754 23.9251 19.3754 23.2505V3.87509H20.6671V1.2917H14.2087L12.917 0H7.75017ZM3.87509 3.87509H16.792V23.2505H3.87509V3.87509ZM6.45848 6.45848V20.6671H9.04187V6.45848H6.45848ZM11.6253 6.45848V20.6671H14.2087V6.45848H11.6253Z" fill="#333333"/>
</svg>
